<svg width="49" height="75" viewBox="0 0 49 75" fill="none" xmlns="http://www.w3.org/2000/svg">
<path d="M30.1315 74.9998C27.617 74.9998 25.2543 74.0263 23.4789 72.2608C23.4723 72.2542 23.4657 72.2476 23.4558 72.241C21.9279 70.7429 19.9084 69.9179 17.77 69.9179C15.635 69.9179 13.6187 70.7396 12.0909 72.2345C12.0777 72.2444 12.0678 72.2576 12.0546 72.2675C10.2792 74.0296 7.91982 74.9998 5.40856 74.9998C3.63318 74.9998 1.9008 74.5048 0.405886 73.5709C0.15509 73.4158 0.0032999 73.1386 0.0032999 72.845L0 24.1386C0 10.8266 10.83 0 24.1386 0C37.4506 0 48.2772 10.83 48.2772 24.1386V70.5286C48.2772 70.8454 48.1056 71.1325 47.8251 71.2843C47.5479 71.4328 47.2113 71.4196 46.9473 71.2447C45.6274 70.3735 44.0863 69.9148 42.4925 69.9148C40.3575 69.9148 38.3412 70.7365 36.8133 72.2314C36.8001 72.2413 36.7902 72.2545 36.777 72.2644C35.0016 74.0298 32.6428 74.9998 30.1315 74.9998ZM24.6339 70.9937C24.6438 71.0036 24.657 71.0135 24.6669 71.0234C26.1222 72.4787 28.0625 73.2805 30.1282 73.2805C32.1939 73.2805 34.1343 72.4787 35.5895 71.0234C35.6027 71.0102 35.6192 70.9937 35.6357 70.9805C37.4836 69.1853 39.9157 68.1986 42.4896 68.1986C43.9086 68.1986 45.2912 68.4989 46.5584 69.0764L46.5617 24.1386C46.5617 11.7736 36.5038 1.71575 24.1388 1.71575C11.7738 1.71575 1.71594 11.7736 1.71594 24.1386V72.3466C2.84447 72.9603 4.10834 73.2805 5.40853 73.2805C7.47426 73.2805 9.41133 72.4786 10.8665 71.0233C10.8797 71.0101 10.8962 70.9969 10.9127 70.9804C12.7607 69.1853 15.1927 68.1986 17.7667 68.1986C20.3472 68.2019 22.7859 69.1919 24.6339 70.9937Z" fill="black"/>
<path d="M26.6514 22.127C27.7945 27.6281 26.6855 32.4787 24.1751 32.9612C21.661 33.4434 18.6987 29.3778 17.5517 23.8768C16.4085 18.3757 17.5175 13.5213 20.0317 13.0388C22.5421 12.5567 25.5082 16.6222 26.6514 22.127Z" fill="black"/>
<path d="M42.5013 22.7284C43.0549 28.3562 41.5007 33.1153 39.0269 33.3578C36.5565 33.6041 34.1011 29.2375 33.5475 23.6097C32.9939 17.9819 34.5481 13.2229 37.0223 12.9765C39.4923 12.734 41.9476 17.1005 42.5013 22.7284Z" fill="black"/>
</svg>
